<?xml version="1.0" standalone="no"?>
<!DOCTYPE svg PUBLIC "-//W3C//DTD SVG 20010904//EN"
 "http://www.w3.org/TR/2001/REC-SVG-20010904/DTD/svg10.dtd">
<svg version="1.0" xmlns="http://www.w3.org/2000/svg"
 width="1024.000000pt" height="1024.000000pt" viewBox="0 0 1024.000000 1024.000000"
 preserveAspectRatio="xMidYMid meet">

<g transform="translate(0.000000,1024.000000) scale(0.100000,-0.100000)"
fill="#307B4E" stroke="none">
<path d="M6667 9023 c-57 -24 -80 -75 -85 -195 -7 -164 36 -269 245 -593 214
-333 322 -531 372 -680 58 -177 67 -402 21 -570 -25 -92 -77 -222 -93 -232
-27 -16 -117 145 -257 461 -186 418 -302 600 -478 752 -205 175 -379 260 -794
385 -128 39 -325 101 -438 139 -304 102 -423 136 -550 159 -226 41 -440 50
-660 31 -527 -48 -954 -207 -1266 -471 -96 -82 -155 -146 -295 -329 -57 -74
-141 -181 -186 -237 -315 -388 -481 -691 -598 -1086 -39 -135 -71 -289 -120
-577 -20 -118 -56 -298 -80 -400 -107 -455 -120 -554 -120 -950 1 -269 4 -339
23 -477 65 -482 177 -866 357 -1223 79 -156 70 -151 118 -72 96 161 227 290
323 318 80 23 124 13 282 -65 166 -83 251 -111 359 -118 96 -7 152 9 198 57
25 26 27 34 23 80 -9 93 -63 124 -327 185 -216 51 -244 60 -353 117 -106 55
-212 157 -256 248 -67 136 -67 321 -1 454 41 83 142 195 222 247 200 130 496
184 781 145 211 -30 300 -61 373 -131 61 -59 70 -88 55 -174 -17 -104 -81
-176 -176 -202 -40 -11 -156 -8 -340 9 -98 10 -182 1 -233 -24 -29 -14 -42
-30 -57 -66 -39 -96 13 -135 229 -168 210 -32 343 -74 467 -147 72 -42 155
-122 191 -185 99 -171 67 -423 -84 -648 -138 -206 -316 -306 -606 -342 -114
-14 -261 -1 -425 38 -125 30 -248 36 -288 15 -35 -19 -80 -62 -80 -77 0 -36
470 -402 785 -611 272 -181 601 -359 851 -461 156 -64 484 -172 639 -211 462
-115 764 -146 1324 -138 396 6 563 21 766 71 490 120 1041 441 1630 947 345
297 542 538 695 854 108 221 186 473 226 725 22 142 30 536 14 683 -37 337
-170 634 -413 927 -134 161 -485 492 -817 770 -74 63 -176 154 -226 204 l-90
91 -155 -193 c-180 -225 -244 -316 -293 -415 -56 -114 -67 -171 -75 -387 -8
-214 -14 -239 -74 -300 -42 -43 -64 -50 -150 -50 -115 1 -186 45 -219 137 -17
50 -17 353 1 483 48 352 141 553 401 865 94 113 174 223 199 273 12 23 25 42
29 42 5 0 36 -42 69 -92 61 -93 213 -287 251 -322 21 -18 21 -17 65 51 146
228 198 351 242 573 46 230 98 346 229 515 80 102 185 196 401 358 196 148
300 247 366 349 58 91 129 234 129 260 0 54 -80 126 -164 149 -68 19 -218 5
-322 -30 -265 -87 -574 -304 -713 -499 -13 -19 -27 -30 -31 -25 -5 4 -16 37
-25 73 -56 219 -196 470 -353 634 -69 71 -274 236 -350 282 -50 30 -64 34
-126 33 -41 0 -87 -7 -109 -16z m1832 -702 c29 -19 -15 -46 -219 -133 -122
-52 -259 -123 -325 -168 -107 -73 -114 -37 -12 65 123 124 266 201 425 229 94
17 113 18 131 7z m-5190 -1421 c49 -14 108 -75 130 -135 31 -84 74 -367 161
-1075 57 -460 64 -573 37 -634 -48 -109 -126 -159 -269 -172 -119 -10 -194 21
-234 98 -19 36 -39 129 -59 263 -27 196 -54 235 -158 235 -82 0 -173 -26 -197
-58 -26 -32 -25 -68 5 -232 39 -211 32 -293 -28 -348 -40 -37 -288 -112 -371
-112 -33 0 -90 51 -109 98 -22 56 -52 201 -92 457 -59 376 -175 1056 -191
1116 -31 123 -14 198 58 252 97 74 323 121 397 83 45 -24 89 -82 106 -139 8
-28 35 -175 60 -326 26 -158 51 -284 60 -298 19 -28 60 -30 213 -8 151 21 146
17 139 139 -3 59 -19 158 -37 236 -37 162 -48 290 -30 355 17 60 86 137 153
169 78 38 193 54 256 36z m2490 -119 c121 -43 127 -51 136 -174 8 -124 -2
-207 -60 -522 -48 -258 -90 -533 -101 -656 -6 -74 -6 -77 18 -93 16 -11 65
-20 139 -26 143 -13 254 -35 293 -58 45 -26 74 -75 81 -138 9 -65 -1 -157 -21
-199 -38 -81 -163 -110 -434 -102 -287 9 -525 63 -604 137 -40 37 -41 40 -39
97 1 32 13 119 27 193 44 239 66 417 81 659 8 130 17 252 21 271 3 19 14 80
24 135 11 55 24 145 30 200 20 190 32 264 45 275 20 17 92 28 190 29 75 1 104
-4 174 -28z m-1175 -311 c332 -85 522 -415 484 -840 -42 -470 -412 -757 -851
-660 -230 51 -398 213 -467 450 -30 103 -39 349 -17 467 29 151 88 267 199
388 100 108 221 181 341 205 81 16 230 11 311 -10z m236 -1830 c104 -15 149
-64 157 -174 10 -119 -28 -215 -100 -252 -32 -17 -129 -17 -417 2 -158 10
-200 -23 -200 -156 0 -53 4 -64 26 -85 32 -30 46 -32 224 -40 265 -12 278 -25
250 -265 -16 -138 -55 -157 -263 -126 -158 23 -202 22 -233 -10 -24 -23 -26
-30 -22 -104 3 -71 6 -82 32 -109 50 -52 96 -61 315 -61 271 0 292 -13 293
-169 1 -106 -21 -177 -69 -223 -69 -67 -126 -70 -463 -22 -96 14 -254 28 -351
33 -148 6 -181 10 -210 27 -79 46 -97 120 -85 353 16 332 56 1052 62 1116 17
199 54 252 186 274 66 10 780 3 868 -9z m2175 -7 c318 -54 582 -187 753 -379
262 -292 294 -705 79 -1006 -120 -167 -327 -310 -553 -381 -177 -56 -228 -62
-519 -62 -261 0 -271 1 -312 22 -57 31 -89 76 -109 154 -18 69 -18 60 10 554
9 143 20 416 26 608 12 414 15 429 114 479 75 39 321 44 511 11z m-969 -318
c51 -51 91 -195 78 -280 -5 -34 -15 -53 -44 -79 -47 -42 -101 -60 -267 -85
-145 -23 -238 -52 -253 -81 -29 -54 5 -153 56 -166 15 -4 90 2 168 12 173 23
231 24 250 4 19 -19 47 -147 48 -223 1 -99 -47 -132 -253 -172 -74 -14 -143
-29 -153 -32 -17 -5 -18 -13 -13 -112 3 -58 9 -114 12 -123 10 -25 39 -23 260
13 211 35 244 33 305 -17 55 -47 64 -77 65 -203 l0 -113 -36 -32 c-53 -45
-107 -61 -359 -106 -467 -82 -597 -86 -667 -19 -39 39 -39 40 -98 439 -62 427
-111 729 -134 840 -35 164 -21 353 28 380 11 5 66 17 123 25 56 9 240 43 408
76 283 56 388 75 433 78 10 0 29 -10 43 -24z"/>
<path d="M4370 5993 c-42 -16 -75 -52 -104 -112 -28 -60 -30 -74 -29 -161 2
-187 77 -300 198 -300 50 0 111 34 140 78 64 97 74 290 19 398 -38 78 -78 104
-153 103 -31 0 -63 -3 -71 -6z"/>
<path d="M6986 4089 c-26 -66 -48 -753 -24 -777 29 -29 211 1 302 51 105 57
166 174 166 320 0 91 -16 153 -56 228 -58 106 -196 196 -316 207 l-58 5 -14
-34z"/>
</g>
</svg>
